HIERARCHY
ROOT Hip
{
    OFFSET 0.0 0.0 0.0
    CHANNELS 6 Xposition Yposition Zposition Zrotation Xrotation Yrotation
    JOINT RightHip
    {
        OFFSET -10.492594718933105 0.0 0.0
        CHANNELS 3 Zrotation Xrotation Yrotation
        JOINT RightKnee
        {
            OFFSET 0.0 0.0 -34.48759460449219
            CHANNELS 3 Zrotation Xrotation Yrotation
            JOINT RightAnkle
            {
                OFFSET 0.0 0.0 -41.24034881591797
                CHANNELS 3 Zrotation Xrotation Yrotation
                End Site
                {
                    OFFSET 0.0 -16.496139526367188 0.0
                }
            }
        }
    }
    JOINT LeftHip
    {
        OFFSET 10.492594718933105 0.0 0.0
        CHANNELS 3 Zrotation Xrotation Yrotation
        JOINT LeftKnee
        {
            OFFSET 0.0 0.0 -34.48759460449219
            CHANNELS 3 Zrotation Xrotation Yrotation
            JOINT LeftAnkle
            {
                OFFSET 0.0 0.0 -41.24034881591797
                CHANNELS 3 Zrotation Xrotation Yrotation
                End Site
                {
                    OFFSET 0.0 -16.496139526367188 0.0
                }
            }
        }
    }
    JOINT Spine
    {
        OFFSET 0.0 0.0 37.447322845458984
        CHANNELS 3 Zrotation Xrotation Yrotation
        JOINT Thorax
        {
            OFFSET 0.0 0.0 11.782642364501953
            CHANNELS 3 Zrotation Xrotation Yrotation
            JOINT Neck
            {
                OFFSET 0.0 0.0 0.0
                CHANNELS 3 Zrotation Xrotation Yrotation
                End Site
                {
                    OFFSET 0.0 0.0 0.0
                }
            }
            JOINT LeftShoulder
            {
                OFFSET 17.508464813232422 0.0 0.0
                CHANNELS 3 Zrotation Xrotation Yrotation
                JOINT LeftElbow
                {
                    OFFSET 26.992279052734375 0.0 0.0
                    CHANNELS 3 Zrotation Xrotation Yrotation
                    JOINT LeftWrist
                    {
                        OFFSET 23.191585540771484 0.0 0.0
                        CHANNELS 3 Zrotation Xrotation Yrotation
                        End Site
                        {
                            OFFSET 9.276634216308594 0.0 0.0
                        }
                    }
                }
            }
            JOINT RightShoulder
            {
                OFFSET -17.508464813232422 0.0 0.0
                CHANNELS 3 Zrotation Xrotation Yrotation
                JOINT RightElbow
                {
                    OFFSET -26.992279052734375 0.0 0.0
                    CHANNELS 3 Zrotation Xrotation Yrotation
                    JOINT RightWrist
                    {
                        OFFSET -23.191585540771484 0.0 0.0
                        CHANNELS 3 Zrotation Xrotation Yrotation
                        End Site
                        {
                            OFFSET -9.276634216308594 0.0 0.0
                        }
                    }
                }
            }
        }
    }
}
MOTION
Frames: 4
Frame Time: 0.03333333333333333
-25.175453186035156 47.46337127685547 -38.197540283203125 113.99434898401591 -65.33907197541716 108.54348540176585 0.2644490756787288 -41.04733758686902 12.47999582827598 25.80388305736176 62.5475053883493 -26.518476014001102 -5.517382872562698e-33 3.975693351829397e-16 1.5902773407317588e-15 -0.30144656644919426 -39.313582539062935 -6.50250678215799 -17.147883085600782 68.2328249195392 23.52510234698407 -1.5902773407317584e-15 3.975693351829396e-16 5.517382872562698e-33 -0.005150575506109272 -17.100431360137613 2.4299584285598366 0.25798654430004053 -6.128941496360141e-06 -7.431815528224262e-08 -4.682659708148826 22.696817341569254 8.442485696960345 -42.37629337565424 38.316341074019405 102.5122723794187 -65.28586959173072 -2.0587529621501573e-06 -4.252771234087791e-07 0.0 0.0 0.0 49.168779293603514 38.015349056501144 -102.16202882077556 69.84195044750673 1.5708731940439953e-06 -4.01347491705804e-06 0.0 0.0 0.0
-25.200149536132812 47.44856262207031 -38.16510009765625 113.78925474230363 -64.93567569529834 108.41337067719675 0.19034149304750336 -40.85313294126709 12.666004711593873 26.501773232879135 62.48850842313148 -27.381864666188832 -1.5902773407317584e-15 6.3611093629270335e-15 -1.5902773407317584e-15 -0.5294065004475634 -39.50769823680011 -6.580078179213911 -16.67235360772143 68.41713256068206 22.95628461396595 0.0 0.0 0.0 -0.061252166884949485 -17.159174206901433 2.5004709185199028 -0.20606268949972636 -1.5873942922160087e-06 -6.330984270462783e-07 -4.526995115746951 22.805567279161902 8.443687251718574 -42.62319472887198 38.45245773661329 102.78579790889093 -65.04957374806101 -4.5164414599774415e-06 -5.061046664243942e-06 3.1805546814635164e-15 1.7655625192200634e-31 6.361109362927033e-15 49.122464545324846 38.45257599968276 -102.3256033726383 70.32443426232574 1.024389502451413e-06 -1.582690443483236e-06 -6.3611093629270335e-15 1.5902773407317584e-15 8.827812596100317e-32
-25.18450927734375 47.45269012451172 -38.13667297363281 112.8693018168711 -64.81110807880899 107.5252048859381 0.11653276999819735 -41.07864652389256 12.797284716600991 26.90280541528026 62.48747091192492 -27.785339356929672 1.5902773407317584e-15 -6.3611093629270335e-15 8.827812596100317e-32 -0.4655419706879088 -39.89920245306536 -6.34513806054957 -16.278178694242936 68.58092787239976 22.378861787253292 -1.5902773407317584e-15 -3.975693351829396e-16 -5.517382872562698e-33 -0.06263431136440804 -17.258833390288956 2.4303989722830885 -0.5442572188298513 1.997031393771302e-06 1.0907337193191641e-06 -4.417644165547516 22.228256359215504 8.65743770365719 -43.03739493102234 38.322740718216586 103.22258163133627 -65.18930877426612 9.660211482634465e-07 3.3333072797895014e-06 3.1805546814635168e-15 -1.7655625192200634e-31 -6.3611093629270335e-15 49.19295967252907 38.16223661647844 -101.92923785873496 69.99650813423207 1.759337730086437e-06 -3.288093516631184e-06 -6.3611093629270335e-15 1.3914926731402886e-15 7.724336021587778e-32
-25.16057586669922 47.452972412109375 -38.16175842285156 112.65208191242182 -64.85446079852265 107.32601204673941 0.14142330405290027 -41.34317712405913 12.89451622515269 27.75621477856297 62.64317563439341 -28.572481190740977 -1.6552148617688095e-32 -3.975693351829396e-16 -4.770832022195275e-15 -0.5706856209592966 -40.11691233692943 -6.427718151207178 -16.872205611591735 68.78077302498497 23.09615656700907 0.0 6.361109362927033e-15 0.0 -0.07590615635022041 -17.26201146844722 2.308259098892061 -0.6432749573965051 -1.8637783196568165e-06 -2.3348287750648576e-07 -4.352076242373913 22.032074705435726 8.761936316635648 -43.11968157190491 38.305114587174174 103.4126688881106 -65.09518628817838 1.0166186516445336e-06 -1.0335472646828317e-06 -3.1805546814635168e-15 -3.1805546814635168e-15 -8.827812596100317e-32 49.44771133905467 37.89858228407864 -101.75927474512356 69.49812932742522 -1.7828620031358664e-06 3.183766609698989e-06 0.0 1.987846675914698e-16 0.0
